<?xml version="1.0" encoding="UTF-8"?>
<svg version="1.1" viewBox="0 0 2048 1234" width="1280" height="1280" xmlns="http://www.w3.org/2000/svg">
<path transform="translate(424,362)" d="m0 0h15l12 4 8 6 8 9 6 13 4 17v10l2-1 7-14 9-13 13-13 12-7 12-3h12l14 4 12 7 9 8 8 13 4 13 1 6v25l-4 22-6 20-8 22-15 32-3 5 1 5 12 13 9 11 14 17 6 9-2 23-5 25-7 24-8 21-14 29-14 24-15 22-9 12-11 14-12 14-10 11-7 8-25 25-8 7-12 11-11 9-9 8-13 10-10 7-26 4-74 9-79 9h-11l-5-11-10-26-11-25-14-29-10-20-13-23-14-24-15-24-26-39-13-18-12-16-13-17-11-13-2-4 23-13 8-5h2v-2l24-15 30-20 18-13 13-10 10-8 13-11 10-9 8-7 15-14 8-8 7-8 12-14 13-17 9-14 3-6h43l25-2 23-5 13-5 7-20 8-17 8-12 8-9 11-8 10-4zm2 19-8 3-10 9-7 9-7 13v4l22 12 16 10 17 12 8 6h1l1-8v-31l-3-17-4-10-8-9-8-3zm104 9-8 4-10 9-9 12-9 17-8 21-6 20 1 5 12 11 8 7 15 14 24 24 3-3 13-28 9-24 6-22 2-13v-20l-3-13-5-8-5-5-7-5-9-3zm-134 52-7 17-13 25-7 11-11 16-11 14-9 10-7 8-21 21-8 7-13 11-16 12-18 13-14 9-1 2 6-2 29-14 18-11 16-10 18-13 11-9 14-12 11-11 18-22 10-15 9-19 5-14 15 8 36 24 18 13 12 9 14 11 10 8 14 12 13 11 2-1-15-16-9-10-15-15-8-7-7-7-8-7-14-12-15-12-19-14-17-11-14-8zm-28 12-24 6-21 3-14 1h-34l-11 16-10 13-12 14-14 15-15 15-8 7-13 12-11 9-10 8-13 10-15 11-14 10-21 14-9 7 3 1 10-5 19-10 24-13 24-15 17-12 16-12 13-11 10-9 15-14 7-8 10-11 10-13 5-7 30-5 24-7 16-7 13-8 5-5zm-270 172m78 14m-6 1-49 6-33 3v2l16 9 10-2 37-10 25-7v-1zm41 5-18 64v5l12 19 8 13 17 28 12 19 3 5h2l-3-9-13-30-15-34-7-16v-7l9-44 1-7-6-6zm-123 27 2 4 10 14 14 20 17 26 13 21 14 24 12 21 5 8 1-2-11-28-11-24-9-19-10-18-4-8 10 2 26 6 3-1-9-6-22-12-45-25zm166 164-18 46-6 15 1 3 10-12 10-14 14-19 10 2 37 11 3-1-18-10-16-8-25-13z" fill="#080D21"/>
<path transform="translate(404,465)" d="m0 0 16 8 36 24 18 13 12 9 14 11 10 8 14 12 13 11 7 4 7 9 10 11 7 8 11 14-1 14-5 25-6 20-9 24-10 21-13 23-10 15-10 14-10 13-8 10-9 11-10 11-7 8-28 28-8 7-11 10-11 9-15 12-3 1-10-19-12-24-14-24-13-22-11-17-8-12-16-23-16-22-12-16-22-28-13-16-11-13-12-14-2-3 1-4 10-5 5-4 5-1 31-15 18-11 16-10 18-13 11-9 14-12 10-10 18-22 10-15 9-19z" fill="#FA682B"/>
<path transform="translate(1243,472)" d="m0 0h91l18 2 11 4 10 6 7 7 5 8 4 13 1 7v11l-2 10-6 12-2 3 12 8 8 9 5 10 2 6 1 8v11l-2 14-5 14-7 10-9 9-16 8-15 4-11 1h-99l-2-2v-192zm47 41-1 1v33h52l7-3 5-5 1-3v-12l-4-6-4-3-4-1-14-1zm-1 69v44h61l10-3 7-8 2-5v-13l-5-8-6-5-9-2z" fill="#080D22"/>
<path transform="translate(781,469)" d="m0 0h17l14 2 17 5 14 8 12 11 7 11 4 8v5l-10 5-32 12h-2l-5-10-1-3-4-2-8-3-6-1h-18l-9 2-6 4-2 4 1 7 5 4 8 3 47 11 14 5 11 6 10 9 6 8 4 10 1 5v24l-3 11-6 11-7 8-11 8-12 6-13 4-10 2-11 1h-12l-21-3-15-5-12-6-11-9-7-8-6-10-4-14 9-4 35-12h5l7 10 9 7 10 5 5 1h15l8-2 9-6 2-8-3-6-8-4-11-3-36-8-17-5-13-7-10-9-7-11-4-14v-18l3-12 5-10 9-11 13-9 12-5 16-4z" fill="#080C21"/>
<path transform="translate(1031,472)" d="m0 0h51l5 11 20 52 19 49 13 34 8 21 10 26-2 2h-48l-4-6-11-29-1-2h-69l-14 36-2 1h-47l-2-1 1-5 17-45 15-39 16-41 20-52zm25 68-5 12-13 33v2h37l-3-9-11-30-4-8z" fill="#080C20"/>
<path transform="translate(219,654)" d="m0 0 7 6 9 10 8 10 13 16 13 17 16 21 13 19 11 15 17 26 12 19 14 24 13 24 7 14-3 1-28-14-42-22-39-20-6-5-6-11-2-5-3-9-13-30-15-34-7-16v-7l9-44z" fill="#FB682B"/>
<path transform="translate(369,455)" d="m0 0 1 3-10 19-12 18-12 16-12 14-16 17-17 16-11 9-17 13-17 12-19 12-18 10-7 3-34 7-46 6-24 2h-9l4-4 11-4 8-4 19-10 24-13 24-15 17-12 16-12 13-11 10-9 14-13 7-8 10-11 10-13 6-8 30-5 24-7 16-7 13-8z" fill="#FB682B"/>
<path transform="translate(1494,472)" d="m0 0h46v194l-1 1h-45l-1-1v-193z" fill="#080C20"/>
<path transform="translate(380,593)" d="m0 0 3 4 12 29 7 13 9 12 8 8 15 10 17 8 17 5 18 2 3 2-27 11-33 16-25 11-19 6-5 1h-14l-9-4-7-9-2-6v-15l6-21 14-38 7-24z" fill="#080C20"/>
<path transform="translate(130,711)" d="m0 0 9 1 15 4 13 3 7 1 6 7 16 26 14 23 12 19 14 23 3 5-1 7-16 41-8 20-4-2-11-26-14-29-9-20-4-13-11-27-14-29-8-16-9-16z" fill="#FB682B"/>
<path transform="translate(1271,745)" d="m0 0h28l3 3 15 33 9 20 2 1v-10l6-47h24l-1 12-8 66-2 18-1 1h-28l-5-8-13-28-9-20-2 10-5 42-1 4h-23l-1-3 10-81 1-11z" fill="#3BB1FD"/>
<path transform="translate(1950,744)" d="m0 0h20l12 4 8 7 5 10-1 4-11 5-11 3-3-6-7-3h-11l-7 3v7l17 4 15 4 9 5 5 6 2 4v15l-4 10-5 6-9 6-15 5h-21l-12-4-8-6-4-5-3-7v-5l10-4 13-4 3 1 4 6 5 3 12 1 7-2 2-2v-5l-5-3-28-7-8-4-6-7-2-6v-11l4-11 6-8 10-6z" fill="#3BB1FD"/>
<path transform="translate(893,744)" d="m0 0h21l13 5 8 8 4 9v3l-21 8h-3l-2-5-4-3-3-1h-12l-7 3v5l5 3 25 6 10 5 7 8 2 6-1 13-6 12-8 7-8 4-11 3h-20l-13-4-9-7-4-6-2-6v-4l13-5 12-3 6 8 9 3 12-1 5-5-1-4-12-4-21-5-10-6-5-8-1-4v-8l3-11 6-8 9-7z" fill="#3CB1FD"/>
<path transform="translate(1033,744)" d="m0 0h19l10 3 8 5 6 7 3 9-10 5-12 4h-2l-2-5-4-3-4-1h-11l-7 3v5l5 3 24 6 10 4 5 4 4 7 1 11-3 11-3 6-8 7-12 6-8 2h-21l-12-4-9-7-4-6-3-10 24-8h2l6 8 4 2 13 1 7-3 1-1v-6l-13-4-20-5-6-3-6-5-4-10v-9l3-10 6-8 7-6 11-4z" fill="#3CB1FD"/>
<path transform="translate(1672,745)" d="m0 0h26l17 64 8 31-1 2h-24l-3-5-3-14-34 1-9 17-1 1h-25l1-5 44-86zm7 36-10 19v3h17l-1-9-3-12z" fill="#3BB1FD"/>
<path transform="translate(750,745)" d="m0 0h25l3 9 17 65 5 18-1 5h-24l-3-7-2-8v-4h-35l-2 6-7 13h-25l-1-2 11-22 10-19 23-45 5-8zm6 36-8 16-2 6h18l-2-10-3-11z" fill="#3BB1FD"/>
<path transform="translate(1143,745)" d="m0 0h69l1 2-3 18-1 1h-45l-2 17h37l-1 13-1 7-1 1h-37l-1 14-1 3h46l-1 15-2 6h-68l-1-5 11-91z" fill="#3BB1FD"/>
<path transform="translate(265,855)" d="m0 0 10 2 37 11 8 2 38 19 2 3-1 1-99 12-28 3h-5l1-5 2-3 5-5 10-13 13-18z" fill="#FB682B"/>
<path transform="translate(1417,745)" d="m0 0h75l1 2-3 18h-26l-2 22-4 31-3 23-1 1h-22l-1-5 9-72h-26l2-19z" fill="#3BB1FD"/>
<path transform="translate(1794,745)" d="m0 0h23l1 2-5 38-4 31-1 5h43l-1 17-1 4h-66l-1-1 1-13 10-82z" fill="#3BB1FD"/>
<path transform="translate(192,637)" d="m0 0h2l-1 9-14 49-2 5-6-1-23-13-19-10-22-13v-3l69-19h3v-2z" fill="#FB682B"/>
<path transform="translate(1551,745)" d="m0 0h24l-1 14-10 80-1 3h-22l-1-1 1-14z" fill="#3BB1FD"/>
<path transform="translate(373,570)" d="m0 0h12l9 5 7 8-1 3-8-6-7-3h-10l-7 4-6 10-2 5-2-1 1-9 5-10z" fill="#080C20"/>
<path transform="translate(493,664)" d="m0 0 11 2 6 4 4 5 2 4v9l-6 10-9 6h-2l2-4 6-8 2-5v-7l-4-6-10-6-4-2z" fill="#080C20"/>
</svg>
